<svg xmlns="http://www.w3.org/2000/svg" xmlns:xlink="http://www.w3.org/1999/xlink" width="327.389" height="97.254" viewBox="0 0 327.389 97.254">
  <defs>
    <clipPath id="clip-path">
      <rect id="Retângulo_90898" data-name="Retângulo 90898" width="327.389" height="97.254" fill="none"/>
    </clipPath>
  </defs>
  <g id="Grupo_126550" data-name="Grupo 126550" transform="translate(-796 -1226.373)">
    <g id="Grupo_126518" data-name="Grupo 126518" transform="translate(796 1226.373)">
      <g id="Grupo_126518-2" data-name="Grupo 126518" clip-path="url(#clip-path)">
        <path id="Caminho_187697" data-name="Caminho 187697" d="M336.211,223.313a15.992,15.992,0,0,0,4.987,11.692,16.5,16.5,0,0,0,12.036,4.986,16.16,16.16,0,0,0,11.864-4.814,15.993,15.993,0,0,0,4.987-11.864,16.334,16.334,0,0,0-4.987-11.864,16.161,16.161,0,0,0-11.864-4.987,16.5,16.5,0,0,0-12.036,4.987,16.161,16.161,0,0,0-4.987,11.864m-22.525-.172a39.163,39.163,0,0,1,39.376-39.376,38.174,38.174,0,0,1,21.665,6.534,39.89,39.89,0,0,1,14.616,17.539,38,38,0,0,1,3.095,15.475,38.511,38.511,0,0,1-5.158,19.6,39.035,39.035,0,0,1-14.271,14.272,38.356,38.356,0,0,1-19.775,5.33,39.22,39.22,0,0,1-39.548-39.376" transform="translate(-230.464 -165.195)" fill="#fff"/>
        <path id="Caminho_187698" data-name="Caminho 187698" d="M246,227.288a16.164,16.164,0,0,1-11.864,4.815,16.509,16.509,0,0,1-12.037-4.986,15.993,15.993,0,0,1-4.987-11.693,16.163,16.163,0,0,1,4.987-11.864,16.509,16.509,0,0,1,12.037-4.986A16.165,16.165,0,0,1,246,203.559a16.336,16.336,0,0,1,4.986,11.864A15.989,15.989,0,0,1,246,227.288m6.878-69.639v22.525h-.344l-2.751-1.032-2.407-.86-3.439-1.032-3.439-.516h-4.987a39.207,39.207,0,0,0-11,1.719h-.343l-1.2.344a40.407,40.407,0,0,0-20.806,17.023,42.349,42.349,0,0,0-2.408,4.815,38.519,38.519,0,0,0-3.095,15.3v.516a11.6,11.6,0,0,1,.172,2.064,38.341,38.341,0,0,0,10.833,24.417,41.533,41.533,0,0,0,5.158,4.643l3.267,2.064a38.692,38.692,0,0,0,12.381,4.471l2.923.343h7.05a38.169,38.169,0,0,0,17.195-5.158A38.687,38.687,0,0,0,275.4,215.939v-58.29Z" transform="translate(-196.651 -157.65)" fill="#fff"/>
        <path id="Caminho_187699" data-name="Caminho 187699" d="M464.819,274.362a9.627,9.627,0,0,0,3.1,7.05,9.973,9.973,0,0,0,7.222,2.923,9.8,9.8,0,0,0,7.222-2.923,9.63,9.63,0,0,0,2.923-7.222,9.974,9.974,0,0,0-2.923-7.222,9.8,9.8,0,0,0-7.222-2.923,9.976,9.976,0,0,0-7.222,2.923,9.8,9.8,0,0,0-3.1,7.222" transform="translate(-274.129 -188.388)" fill="#ff3131"/>
        <path id="Caminho_187700" data-name="Caminho 187700" d="M456.79,251.877a11.35,11.35,0,0,1-3.439-8.254,12.036,12.036,0,0,1,11.864-11.864,16.164,16.164,0,0,1-6.534-3.439l-.688-.516-.344-.343h-.172l-.343-.344h-.172a15.816,15.816,0,0,1-4.643-11.348,17.023,17.023,0,0,1,13.928-16.679V176.736h-1.032l-3.439.516-3.44,1.032-2.579.688L453.007,180h-.343V157.65H430.482v58.29a38.857,38.857,0,0,0,1.719,11.52l1.032,2.751a39.544,39.544,0,0,0,16.679,19.6,38.17,38.17,0,0,0,9.285,3.955,12.371,12.371,0,0,1-2.579-1.891" transform="translate(-264.208 -157.65)" fill="#fff"/>
      </g>
    </g>
  </g>
</svg>
